Coordinates
version=1
nRows=8
nColumns=46
inDegrees=yes

Units are S.I. units (second, meters, Newtons, ...)
Angles are in degrees.

endheader
time	pelvis_tilt	pelvis_list	pelvis_rotation	pelvis_tx	pelvis_ty	pelvis_tz	bb_angle	bb_tx	bb_ty	bb_tz	hip_flexion_r	hip_adduction_r	hip_rotation_r	knee_angle_r	knee_angle_r_beta	ankle_angle_r	subtalar_angle_r	mtp_angle_r	crank_angle_r	hip_flexion_l	hip_adduction_l	hip_rotation_l	knee_angle_l	knee_angle_l_beta	ankle_angle_l	subtalar_angle_l	mtp_angle_l	crank_angle_l	lumbar_extension	lumbar_bending	lumbar_rotation	arm_flex_r	arm_add_r	arm_rot_r	elbow_flex_r	pro_sup_r	wrist_flex_r	wrist_dev_r	arm_flex_l	arm_add_l	arm_rot_l	elbow_flex_l	pro_sup_l	wrist_flex_l	wrist_dev_l
      7.50500000	    -15.79638947	      4.89851220	      5.12596350	      0.15423355	      1.15483910	     -0.23094386	      0.00000000	      0.50000000	      0.00000000	      0.25000000	     52.56396777	    -11.81739654	     -4.64313018	     71.99563063	      1.25656080	     -0.75178726	    -10.73619002	      0.00000000	      0.00000000	     82.66865282	      1.14054442	      2.79031792	     88.46936150	      1.54408165	     11.01670516	      5.49218500	      0.00000000	      0.00000000	    -63.30261025	     -3.77123594	     -6.02793141	     89.56586147	    -20.73462144	     32.95168836	     56.57092232	     33.02407281	      0.00000000	      0.00000000	     89.66633577	     -7.39266775	     28.76693344	     59.61365897	     36.82312614	      0.00000000	      0.00000000
      7.51000000	    -15.66985872	      4.81407601	      5.09541238	      0.15398956	      1.15362191	     -0.23005285	      0.00000000	      0.50000000	      0.00000000	      0.25000000	     53.55539747	    -11.49049947	     -4.08348706	     74.34976225	      1.29764815	     -1.24462057	    -11.69742166	      0.00000000	      0.00000000	     80.81139680	      1.07802341	      2.84875582	     86.01977278	      1.50132826	     13.08248234	      5.92180628	      0.00000000	      0.00000000	    -63.23685970	     -3.77052655	     -5.47846274	     89.52927243	    -21.42804912	     33.12683042	     56.82303429	     33.10305623	      0.00000000	      0.00000000	     89.67483925	     -7.04747601	     29.37516168	     58.90231680	     36.55939464	      0.00000000	      0.00000000
      7.51500000	    -15.54126857	      4.49372926	      5.12579735	      0.15382845	      1.15198142	     -0.22964671	      0.00000000	      0.50000000	      0.00000000	      0.25000000	     54.53355208	    -11.12736119	     -3.84366294	     76.74697528	      1.33948741	     -1.39680336	    -12.24035763	      0.00000000	      0.00000000	     79.01312096	      1.05863349	      3.10579059	     83.59041069	      1.45892789	     15.01628268	      5.68496543	      0.00000000	      0.00000000	    -63.09929736	     -3.47221370	     -4.85497166	     89.51178661	    -21.75163198	     33.23012549	     56.89451651	     33.13829489	      0.00000000	      0.00000000	     89.65532092	     -6.96111952	     29.52515226	     58.66786679	     36.44268627	      0.00000000	      0.00000000
      7.52000000	    -15.25649818	      4.42785326	      5.11049488	      0.15382755	      1.15072553	     -0.22916924	      0.00000000	      0.50000000	      0.00000000	      0.25000000	     55.41649155	    -10.93998801	     -3.42739537	     79.14257570	      1.38129852	     -1.79840429	    -12.91171588	      0.00000000	      0.00000000	     76.92741566	      1.06844996	      3.07894041	     80.99716122	      1.41366715	     16.67318150	      5.73100858	      0.00000000	      0.00000000	    -63.12310651	     -3.38358668	     -4.32271742	     89.48095006	    -22.38127358	     33.53886602	     57.06371739	     33.23370005	      0.00000000	      0.00000000	     89.65414212	     -6.61634544	     29.88104288	     58.13025559	     36.20094189	      0.00000000	      0.00000000
      7.52500000	    -14.96550348	      4.25810120	      5.11735248	      0.15384704	      1.14922356	     -0.22899542	      0.00000000	      0.50000000	      0.00000000	      0.25000000	     56.32702409	    -10.71995966	     -3.10491883	     81.55755366	      1.42344784	     -2.09822755	    -13.45067465	      0.00000000	      0.00000000	     74.86436202	      1.10834033	      3.12967007	     78.38974418	      1.36815914	     18.09183631	      5.37084738	      0.00000000	      0.00000000	    -63.10334401	     -3.12166627	     -3.70485245	     89.45421940	    -22.93703147	     33.93056999	     57.23649261	     33.35554822	      0.00000000	      0.00000000	     89.63576284	     -6.34263103	     30.10053566	     57.62117485	     35.93108812	      0.00000000	      0.00000000
      7.53000000	    -14.74435913	      3.94034274	      5.09173691	      0.15393520	      1.14736890	     -0.22904121	      0.00000000	      0.50000000	      0.00000000	      0.25000000	     57.36268104	    -10.44256093	     -2.96291255	     83.96523487	      1.46546981	     -2.42541946	    -13.84451411	      0.00000000	      0.00000000	     72.92606596	      1.10661177	      3.34214101	     75.82536433	      1.32340226	     19.20818113	      4.68043635	      0.00000000	      0.00000000	    -62.97049507	     -2.84436059	     -2.90512996	     89.43040362	    -23.83641669	     34.74516236	     57.59363662	     33.69086048	      0.00000000	      0.00000000	     89.62373974	     -5.85564388	     30.24633904	     56.92884515	     35.29930721	      0.00000000	      0.00000000
      7.53500000	    -14.46882843	      3.63722960	      5.03810545	      0.15416262	      1.14548751	     -0.22916636	      0.00000000	      0.50000000	      0.00000000	      0.25000000	     58.42472321	    -10.21006490	     -2.84881001	     86.40448716	      1.50804279	     -2.87089194	    -14.11819236	      0.00000000	      0.00000000	     70.92693355	      1.06151285	      3.53347647	     73.29923233	      1.27931294	     20.39171723	      4.13947985	      0.00000000	      0.00000000	    -62.89558691	     -2.45529047	     -2.30019319	     89.40324317	    -23.81808042	     34.81402963	     57.62519896	     33.73942728	      0.00000000	      0.00000000	     89.58004313	     -5.95901930	     30.30132876	     56.73983419	     35.21427003	      0.00000000	      0.00000000
      7.54000000	    -14.13712057	      3.48810888	      4.93786731	      0.15434377	      1.14382946	     -0.22933071	      0.00000000	      0.50000000	      0.00000000	      0.25000000	     59.53262326	    -10.17943275	     -2.74366794	     88.81288849	      1.55007732	     -3.66143437	    -14.60881306	      0.00000000	      0.00000000	     68.82158336	      1.07717355	      3.60964531	     70.70933017	      1.23411062	     21.18853212	      3.43522253	      0.00000000	      0.00000000	    -62.88598381	     -2.19376761	     -1.81874931	     89.38413910	    -23.80163863	     34.96889501	     57.59980367	     33.80189534	      0.00000000	      0.00000000	     89.54384646	     -5.99753754	     30.52684050	     56.30383066	     35.09179146	      0.00000000	      0.00000000
